<svg width="20" height="31" viewBox="0 0 20 31" fill="none" xmlns="http://www.w3.org/2000/svg">
<path d="M3.86548 16.5031C4.34347 16.5031 4.73096 15.9428 4.73096 15.2516C4.73096 14.5603 4.34347 14 3.86548 14C3.38749 14 3 14.5603 3 15.2516C3 15.9428 3.38749 16.5031 3.86548 16.5031Z" stroke="#F9F2E0" stroke-width="2" stroke-linecap="round" stroke-linejoin="round"/>
<path d="M9.59644 16.5031C10.0744 16.5031 10.4619 15.9428 10.4619 15.2516C10.4619 14.5603 10.0744 14 9.59644 14C9.11845 14 8.73096 14.5603 8.73096 15.2516C8.73096 15.9428 9.11845 16.5031 9.59644 16.5031Z" stroke="#F9F2E0" stroke-width="2" stroke-linecap="round" stroke-linejoin="round"/>
<path d="M15.3274 16.5031C15.8054 16.5031 16.1929 15.9428 16.1929 15.2516C16.1929 14.5603 15.8054 14 15.3274 14C14.8494 14 14.4619 14.5603 14.4619 15.2516C14.4619 15.9428 14.8494 16.5031 15.3274 16.5031Z" stroke="#F9F2E0" stroke-width="2" stroke-linecap="round" stroke-linejoin="round"/>
</svg>
